<svg xmlns="http://www.w3.org/2000/svg" viewBox="0 0 100 100">
  <!-- Achaemenid Royal Seal Symbol -->
  <circle cx="50" cy="50" r="35" fill="none" stroke="#3498db" stroke-width="3"/>
  <circle cx="50" cy="50" r="25" fill="none" stroke="#3498db" stroke-width="2"/>
  <path fill="#3498db" d="M50,15 L53,25 L63,25 L55,31 L58,41 L50,35 L42,41 L45,31 L37,25 L47,25 Z" />
  <path fill="#3498db" d="M50,85 L47,75 L37,75 L45,69 L42,59 L50,65 L58,59 L55,69 L63,75 L53,75 Z" />
  <path fill="#3498db" d="M15,50 L25,47 L25,37 L31,45 L41,42 L35,50 L41,58 L31,55 L25,63 L25,53 Z" />
  <path fill="#3498db" d="M85,50 L75,53 L75,63 L69,55 L59,58 L65,50 L59,42 L69,45 L75,37 L75,47 Z" />
</svg> 